<svg height='100px' width='100px'  fill="#293240" xmlns="http://www.w3.org/2000/svg" xmlns:xlink="http://www.w3.org/1999/xlink" version="1.1" x="0px" y="0px" viewBox="0 0 66 66" enable-background="new 0 0 66 66" xml:space="preserve"><g><g><g><path d="M61.328,1H4.672C2.647,1,1,2.648,1,4.672c0,8.08,0,46.86,0,56.656C1,63.353,2.647,65,4.672,65h56.656     C63.353,65,65,63.353,65,61.328c0-5.13,0-49.131,0-56.656C65,2.648,63.353,1,61.328,1z M2.5,4.672C2.5,3.475,3.474,2.5,4.672,2.5     h56.656c1.198,0,2.172,0.975,2.172,2.172v5.675h-61V4.672z M61.328,63.5H4.672c-1.198,0-2.172-0.975-2.172-2.172V11.847h61     v49.482C63.5,62.525,62.526,63.5,61.328,63.5z"></path></g><g><path d="M57.393,3.405c-1.664,0-3.018,1.354-3.018,3.018s1.354,3.018,3.018,3.018c1.664,0,3.018-1.354,3.018-3.018     S59.057,3.405,57.393,3.405z M57.393,7.941c-0.837,0-1.518-0.682-1.518-1.518s0.681-1.518,1.518-1.518     c0.837,0,1.518,0.681,1.518,1.518S58.23,7.941,57.393,7.941z"></path></g><g><path d="M50.193,3.405c-1.664,0-3.018,1.354-3.018,3.018s1.354,3.018,3.018,3.018c1.664,0,3.018-1.354,3.018-3.018     S51.857,3.405,50.193,3.405z M50.193,7.941c-0.837,0-1.518-0.682-1.518-1.518s0.681-1.518,1.518-1.518     c0.837,0,1.518,0.681,1.518,1.518S51.03,7.941,50.193,7.941z"></path></g><g><path d="M42.992,3.405c-1.664,0-3.017,1.354-3.017,3.018s1.354,3.018,3.017,3.018c1.664,0,3.018-1.354,3.018-3.018     S44.656,3.405,42.992,3.405z M42.992,7.941c-0.837,0-1.517-0.682-1.517-1.518s0.681-1.518,1.517-1.518     c0.837,0,1.518,0.681,1.518,1.518S43.829,7.941,42.992,7.941z"></path></g><g><path d="M32.735,5.673H5.962c-0.414,0-0.75,0.336-0.75,0.75c0,0.414,0.336,0.75,0.75,0.75h26.773c0.414,0,0.75-0.336,0.75-0.75     C33.485,6.009,33.15,5.673,32.735,5.673z"></path></g><g><path d="M58.338,36.199h-3.615v-6c0-0.414-0.336-0.75-0.75-0.75H33.75v-4.502h3.616c0.414,0,0.75-0.336,0.75-0.75v-7.188     c0-0.414-0.336-0.75-0.75-0.75h-8.731c-0.414,0-0.75,0.336-0.75,0.75v7.188c0,0.414,0.336,0.75,0.75,0.75h3.615v4.502H12.028     c-0.414,0-0.75,0.336-0.75,0.75v6H7.663c-0.414,0-0.75,0.336-0.75,0.75v7.188c0,0.414,0.336,0.75,0.75,0.75h8.731     c0.414,0,0.75-0.336,0.75-0.75v-7.188c0-0.414-0.336-0.75-0.75-0.75h-3.616v-5.25H32.25v5.25h-3.616     c-0.414,0-0.75,0.336-0.75,0.75v7.188c0,0.414,0.336,0.75,0.75,0.75h3.616V50.4h-3.616c-0.414,0-0.75,0.336-0.75,0.75v7.188     c0,0.414,0.336,0.75,0.75,0.75h8.732c0.414,0,0.75-0.336,0.75-0.75V51.15c0-0.414-0.336-0.75-0.75-0.75H33.75v-5.512h3.616     c0.414,0,0.75-0.336,0.75-0.75v-7.188c0-0.414-0.336-0.75-0.75-0.75H33.75v-5.25h19.473v5.25h-3.616     c-0.414,0-0.75,0.336-0.75,0.75v7.188c0,0.414,0.336,0.75,0.75,0.75h3.616V50.4h-3.616c-0.414,0-0.75,0.336-0.75,0.75v7.188     c0,0.414,0.336,0.75,0.75,0.75h8.731c0.414,0,0.75-0.336,0.75-0.75V51.15c0-0.414-0.336-0.75-0.75-0.75h-3.616v-5.512h3.616     c0.414,0,0.75-0.336,0.75-0.75v-7.188C59.088,36.535,58.752,36.199,58.338,36.199z M29.385,17.759h7.231v5.688h-7.231V17.759z      M15.644,43.388H8.413v-5.688h7.231V43.388z M36.616,57.588h-7.232V51.9h7.232V57.588z M36.616,43.388h-7.232v-5.688h7.232     V43.388z M57.588,57.588h-7.231V51.9h7.231V57.588z M57.588,43.388h-7.231v-5.688h7.231V43.388z"></path></g></g></g></svg>