<svg height='100px' width='100px'  fill="#293240" xmlns="http://www.w3.org/2000/svg" xmlns:xlink="http://www.w3.org/1999/xlink" version="1.1" x="0px" y="0px" viewBox="0 0 66 66" enable-background="new 0 0 66 66" xml:space="preserve"><g><g><g><path d="M21.156,21.192c-0.001,0-0.014,0-0.015,0c-2.715,0.008-4.909,2.209-4.9,4.926c0.008,2.698,2.211,4.893,4.926,4.893     c2.716-0.008,4.909-2.209,4.9-4.926C26.059,23.387,23.856,21.192,21.156,21.192z M21.151,29.51c-1.875,0-3.404-1.524-3.41-3.398     c-0.006-1.883,1.511-3.415,3.405-3.421l0.01-0.75v0.75c1.875,0,3.405,1.524,3.411,3.398C24.573,27.962,23.07,29.504,21.151,29.51     z"></path></g><g><path d="M48.789,31.473c0.229,0,0.446-0.105,0.588-0.285l1.105-1.399l1.258,1.429c0.325,0.368,0.91,0.33,1.184-0.075l0.882-1.304     l1.225,1.381c0.31,0.35,0.888,0.339,1.173-0.064l1.335-1.887l1.163,1.853c0.253,0.405,0.809,0.467,1.149,0.147l4.91-4.622     c0.313-0.295,0.315-0.795,0-1.092l-4.91-4.623c-0.139-0.131-0.323-0.204-0.514-0.204H46.944C44.475,10.298,35.06,2.8,24.283,2.8     c-0.021,0-0.043,0-0.064,0C11.348,2.851,0.951,13.304,1.002,26.181c0.03,12.841,10.439,23.208,23.285,23.208     c0.025,0,0.052,0,0.077,0c4.148-0.01,8.091-1.131,11.513-3.097l15.134,15.125c2.385,2.385,6.241,2.37,8.621,0     c2.371-2.371,2.372-6.238,0-8.621L44.494,37.668c1.094-1.905,1.925-3.983,2.441-6.194H48.789z M63.154,26.101l-3.665,3.451     l-1.276-2.033c-0.266-0.424-0.918-0.502-1.248-0.035l-1.439,2.034l-1.238-1.396c-0.316-0.356-0.902-0.336-1.182,0.077     l-0.88,1.301l-1.211-1.376c-0.334-0.381-0.884-0.308-1.151,0.031l-1.437,1.819H36.14c-0.3,0-0.571,0.179-0.689,0.454     c-1.724,4.017-5.66,6.617-10.031,6.624l-0.037,0.75v-0.75c-6.02,0-10.933-4.897-10.953-10.917     c-0.013-6.041,4.887-10.971,10.955-10.99c4.384,0,8.335,2.603,10.065,6.63c0.118,0.275,0.389,0.454,0.689,0.454h22.901     L63.154,26.101z M41.426,31.473c-2.312,7.44-9.191,12.579-17.076,12.606c-0.018,0-0.035,0-0.053,0     c-9.893,0-17.957-8.029-17.985-17.922C6.283,16.245,14.323,8.158,24.235,8.129c0.021,0,0.041,0,0.063,0     c7.911,0,14.811,5.131,17.139,12.6h-4.813c-2.063-4.32-6.421-7.085-11.274-7.085c-6.863,0.023-12.434,5.627-12.419,12.494     c0.022,6.844,5.608,12.413,12.453,12.413c0,0,0.04,0,0.04,0c4.802-0.007,9.145-2.769,11.2-7.078H41.426z M43.697,38.992     L58.57,53.856c1.789,1.796,1.789,4.713,0.002,6.499c-1.795,1.787-4.702,1.799-6.501,0.001L37.197,45.491     C39.783,43.767,42.157,41.302,43.697,38.992z M24.36,47.889c-0.024,0-0.048,0-0.072,0c-12.014,0-21.757-9.693-21.785-21.713     C2.454,14.133,12.177,4.348,24.224,4.3c0.021,0,0.04,0,0.061,0c9.962,0,18.678,6.852,21.113,16.429H43     c-2.382-8.336-9.974-14.1-18.702-14.1c-0.022,0-0.045,0-0.067,0C13.491,6.66,4.781,15.423,4.812,26.161     c0.031,10.74,8.744,19.418,19.484,19.418c0.019,0,0.039,0,0.058,0c8.7-0.03,16.27-5.804,18.635-14.106h2.4     C42.945,41.226,34.122,47.866,24.36,47.889z"></path></g></g></g></svg>