<svg height='100px' width='100px'  fill="#293240" xmlns="http://www.w3.org/2000/svg" xmlns:xlink="http://www.w3.org/1999/xlink" version="1.1" x="0px" y="0px" viewBox="0 0 66 66" enable-background="new 0 0 66 66" xml:space="preserve"><g><g><g><path d="M7.209,3.641c-1.352,0-2.451,1.1-2.451,2.451c0,1.353,1.1,2.452,2.451,2.452c1.352,0,2.452-1.1,2.452-2.452     C9.661,4.74,8.561,3.641,7.209,3.641z M7.209,7.044c-0.524,0-0.951-0.427-0.951-0.952c0-0.524,0.427-0.951,0.951-0.951     c0.525,0,0.952,0.427,0.952,0.951C8.161,6.617,7.734,7.044,7.209,7.044z"></path></g><g><path d="M14.599,3.641c-1.352,0-2.451,1.1-2.451,2.451c0,1.353,1.1,2.452,2.451,2.452c1.352,0,2.452-1.1,2.452-2.452     C17.051,4.74,15.951,3.641,14.599,3.641z M14.599,7.044c-0.524,0-0.951-0.427-0.951-0.952c0-0.524,0.427-0.951,0.951-0.951     c0.525,0,0.952,0.427,0.952,0.951C15.551,6.617,15.124,7.044,14.599,7.044z"></path></g><g><path d="M21.989,3.641c-1.352,0-2.452,1.1-2.452,2.451c0,1.353,1.1,2.452,2.452,2.452c1.352,0,2.452-1.1,2.452-2.452     C24.44,4.74,23.341,3.641,21.989,3.641z M21.989,7.044c-0.525,0-0.952-0.427-0.952-0.952c0-0.524,0.427-0.951,0.952-0.951     c0.525,0,0.952,0.427,0.952,0.951C22.94,6.617,22.513,7.044,21.989,7.044z"></path></g><g><path d="M55.565,5.342H28.749c-0.414,0-0.75,0.336-0.75,0.75c0,0.414,0.336,0.75,0.75,0.75h26.816c0.414,0,0.75-0.336,0.75-0.75     C56.315,5.678,55.979,5.342,55.565,5.342z"></path></g><g><path d="M55.194,27.833c0.414,0,0.75-0.336,0.75-0.75V15.328c0-0.414-0.336-0.75-0.75-0.75H6.413c-0.414,0-0.75,0.336-0.75,0.75     v11.755c0,0.414,0.336,0.75,0.75,0.75H55.194z M7.163,16.078h47.281v10.255H7.163V16.078z"></path></g><g><path d="M33.67,32.521H6.795c-0.414,0-0.75,0.336-0.75,0.75c0,0.414,0.336,0.75,0.75,0.75H33.67c0.414,0,0.75-0.336,0.75-0.75     C34.42,32.856,34.084,32.521,33.67,32.521z"></path></g><g><path d="M33.67,40.26H6.795c-0.414,0-0.75,0.336-0.75,0.75c0,0.414,0.336,0.75,0.75,0.75H33.67c0.414,0,0.75-0.336,0.75-0.75     C34.42,40.596,34.084,40.26,33.67,40.26z"></path></g><g><path d="M33.67,48H6.795c-0.414,0-0.75,0.336-0.75,0.75c0,0.414,0.336,0.75,0.75,0.75H33.67c0.414,0,0.75-0.336,0.75-0.75     C34.42,48.336,34.084,48,33.67,48z"></path></g><g><path d="M64.749,39.12c-0.149-0.142-0.36-0.226-0.554-0.205c-0.181,0.009-0.372,0.014-0.557,0.014     c-1.037,0-2.06-0.126-3.048-0.351c0-12.728,0-21.628,0-34.113C60.59,2.555,59.035,1,57.125,1H4.482     C2.572,1,1.017,2.555,1.017,4.465c0,10.056,0,37.57,0,48.926c0,1.91,1.554,3.465,3.465,3.465h36.559     c0.155,0,0.291-0.058,0.41-0.139C44.849,62.278,51.1,65,51.955,65h0.005c0.089,0,0.177-0.016,0.26-0.047     c0.009-0.003,0.018-0.008,0.028-0.011c0.002-0.001,0.005-0.002,0.007-0.003c7.364-2.737,12.351-9.072,12.707-16.146     c0.016-0.276,0.021-0.554,0.021-0.836v-8.293C64.983,39.459,64.898,39.262,64.749,39.12z M63.483,47.957     c0,0.014-0.001,0.028-0.001,0.043H52.705V35.674c2.574,2.997,6.799,4.715,10.778,4.754V47.957z M40.528,49.51H51.21v13.625     C45.504,60.668,41.178,55.68,40.528,49.51z M40.432,47.957v-7.531c4.344,0.084,8.256-1.727,10.773-4.743V48.01H40.434     C40.433,47.992,40.432,47.975,40.432,47.957z M2.517,4.465c0-1.083,0.881-1.965,1.965-1.965h52.642     c1.083,0,1.965,0.882,1.965,1.965v5.22H2.517V4.465z M4.482,55.355c-1.083,0-1.965-0.882-1.965-1.965V11.185H59.09v26.961     c-4.858-1.704-6.358-5.162-6.614-5.411c-0.024-0.023-0.116-0.094-0.183-0.128c-0.056-0.029-0.129-0.055-0.215-0.07     c-0.044-0.008-0.12-0.017-0.123-0.017c-0.035,0.004-0.093,0.01-0.138,0.019c-0.015,0.003-0.03,0-0.045,0.004     c-0.003,0.001-0.005,0.003-0.008,0.004c-0.126,0.034-0.186,0.076-0.257,0.131c-0.091,0.068-0.123,0.111-0.167,0.175     c-0.015,0.022-0.034,0.04-0.046,0.064c-2.247,4.196-6.972,6.355-11.549,5.972c-0.441-0.035-0.813,0.311-0.813,0.747     c0.339,6.171-0.979,10.192,1.764,15.721H4.482z M52.71,63.131V49.5h10.682C62.78,55.344,58.7,60.542,52.71,63.131z"></path></g></g></g></svg>