<svg height='100px' width='100px'  fill="#293240" xmlns="http://www.w3.org/2000/svg" xmlns:xlink="http://www.w3.org/1999/xlink" version="1.1" x="0px" y="0px" viewBox="0 0 66 66" enable-background="new 0 0 66 66" xml:space="preserve"><g><g><g><path d="M41.945,22.04c0.414,0,0.75-0.336,0.75-0.75V5.944c0-0.414-0.336-0.75-0.75-0.75H7.004c-0.414,0-0.75,0.336-0.75,0.75     V21.29c0,0.414,0.336,0.75,0.75,0.75H41.945z M7.754,6.694h33.44V20.54H7.754V6.694z"></path></g><g><path d="M15.247,24.691H7.456c-0.414,0-0.75,0.336-0.75,0.75v8.021c0,0.414,0.336,0.75,0.75,0.75h7.791     c0.414,0,0.75-0.336,0.75-0.75v-8.021C15.997,25.027,15.661,24.691,15.247,24.691z M14.497,32.712H8.206v-6.521h6.291V32.712z"></path></g><g><path d="M15.247,37.715H7.456c-0.414,0-0.75,0.336-0.75,0.75v8.021c0,0.414,0.336,0.75,0.75,0.75h7.791     c0.414,0,0.75-0.336,0.75-0.75v-8.021C15.997,38.051,15.661,37.715,15.247,37.715z M14.497,45.737H8.206v-6.521h6.291V45.737z"></path></g><g><path d="M15.247,50.739H7.456c-0.414,0-0.75,0.336-0.75,0.75v8.022c0,0.414,0.336,0.75,0.75,0.75h7.791     c0.414,0,0.75-0.336,0.75-0.75v-8.022C15.997,51.075,15.661,50.739,15.247,50.739z M14.497,58.761H8.206v-6.522h6.291V58.761z"></path></g><g><path d="M28.596,50.739h-7.791c-0.414,0-0.75,0.336-0.75,0.75v8.022c0,0.414,0.336,0.75,0.75,0.75h7.791     c0.414,0,0.75-0.336,0.75-0.75v-8.022C29.346,51.075,29.01,50.739,28.596,50.739z M27.846,58.761h-6.291v-6.522h6.291V58.761z"></path></g><g><path d="M32.168,33.551c-0.293,0.293-0.293,0.768,0,1.061c0.293,0.293,0.768,0.293,1.061,0     c5.251-5.248,14.317-1.532,14.317,5.932c0,0.414,0.336,0.75,0.75,0.75c0.414,0,0.75-0.336,0.75-0.75     C49.046,31.748,38.362,27.363,32.168,33.551z"></path></g><g><path d="M62.565,58.24l-5.895-5.896c-1.346-1.345-3.571-1.5-5.126-0.473l-2.052-2.052c3.25-3.6,4.37-8.469,2.983-13.175     c-0.977-3.316-3.032-6.024-5.783-7.785V1.614c0-0.414-0.336-0.75-0.75-0.75H3.003c-0.414,0-0.75,0.336-0.75,0.75v62.5     c0,0.414,0.336,0.75,0.75,0.75h42.94c0.414,0,0.75-0.336,0.75-0.75V52.211c0.608-0.395,1.183-0.846,1.731-1.339l2.055,2.055     c-1.081,1.578-0.918,3.736,0.478,5.131l5.895,5.896c1.579,1.578,4.134,1.578,5.713,0C64.14,62.377,64.14,59.814,62.565,58.24z      M51.037,37.068c3.629,12.322-11.694,21.175-20.634,12.235c-0.935-0.936-1.706-1.997-2.292-3.159     c-4.66-9.173,3.372-19.935,13.673-17.707C46.272,29.405,49.731,32.631,51.037,37.068z M34.903,53.763     c2.349,0.757,4.357,0.796,6.29,0.513v4.488h-6.29V53.763z M27.843,32.498c-0.051,0.072-0.103,0.143-0.153,0.216h-6.137v-6.52     h6.29V32.498z M26.284,45.734h-4.731v-6.521h3.794C25.133,41.42,25.456,43.675,26.284,45.734z M41.193,26.811     c-2.109-0.309-4.272-0.135-6.29,0.513v-1.129h6.29V26.811z M45.193,63.364H3.753v-61h41.44v25.664     c-0.791-0.376-1.626-0.681-2.5-0.909v-1.675c0-0.414-0.336-0.75-0.75-0.75h-7.79c-0.414,0-0.75,0.336-0.75,0.75v2.465     c-1.527,0.694-2.899,1.653-4.06,2.814v-5.279c0-0.414-0.336-0.75-0.75-0.75h-7.79c-0.414,0-0.75,0.336-0.75,0.75v8.02     c0,0.414,0.336,0.75,0.75,0.75h5.994c-0.563,1.097-0.976,2.274-1.226,3.5h-4.768c-1.353,0-0.484,1.828-0.75,8.771     c0,0.414,0.336,0.75,0.75,0.75h6.199c0.626,1.14,1.405,2.195,2.34,3.13c1.193,1.193,2.571,2.129,4.061,2.811v6.34     c0,0.414,0.336,0.75,0.75,0.75h7.79c0.414,0,0.75-0.336,0.75-0.75v-5.542c0.863-0.226,1.698-0.535,2.5-0.924V63.364z      M61.505,62.892c-0.959,0.959-2.633,0.959-3.592,0l-5.895-5.896c-2.344-2.345,1.205-5.979,3.592-3.592l5.895,5.896     C62.495,60.291,62.495,61.902,61.505,62.892z"></path></g></g></g></svg>