<svg height='100px' width='100px'  fill="#293240" xmlns="http://www.w3.org/2000/svg" xmlns:xlink="http://www.w3.org/1999/xlink" version="1.1" x="0px" y="0px" viewBox="0 0 66 66" enable-background="new 0 0 66 66" xml:space="preserve"><g><g><g><path d="M60.262,17.191h-9.668V15.98c0-0.363-0.26-0.674-0.617-0.738l-2.919-0.524c-0.315-1.143-0.776-2.253-1.377-3.313     l1.699-2.433c0.208-0.299,0.172-0.703-0.086-0.961L43.58,4.307c-0.257-0.256-0.662-0.292-0.957-0.085l-2.434,1.692     c-1.059-0.6-2.169-1.057-3.313-1.363L36.361,1.62C36.299,1.262,35.987,1,35.623,1h-5.245c-0.363,0-0.675,0.261-0.738,0.618     L29.115,4.55c-1.137,0.307-2.246,0.765-3.306,1.365l-2.45-1.694c-0.299-0.205-0.701-0.17-0.958,0.088l-3.696,3.705     c-0.256,0.257-0.292,0.661-0.084,0.959l1.698,2.432c-0.6,1.059-1.062,2.17-1.377,3.313l-2.918,0.524     c-0.357,0.064-0.617,0.375-0.617,0.738v1.211H5.739c-2.023,0-3.67,1.646-3.67,3.67c0,8.887,0,25.256,0,33.483v0.377     c0,1.816,1.477,3.293,3.294,3.293c3.25,0,15.78,0,18.495,0V63.5h-3.181c-0.414,0-0.75,0.336-0.75,0.75     c0,0.414,0.336,0.75,0.75,0.75c10.839,0,13.806,0,24.645,0c0.414,0,0.75-0.336,0.75-0.75c0-0.414-0.336-0.75-0.75-0.75h-3.182     v-5.485h18.12h0.376c1.815,0,3.293-1.477,3.293-3.293v-0.377c0-8.299,0-24.654,0-33.483     C63.931,18.838,62.285,17.191,60.262,17.191z M16.907,16.607l2.774-0.498c0.293-0.053,0.527-0.274,0.597-0.564     c0.313-1.316,0.842-2.589,1.572-3.784c0.154-0.254,0.145-0.576-0.025-0.82l-1.614-2.313l2.81-2.817l2.328,1.61     c0.244,0.168,0.564,0.179,0.817,0.023c1.197-0.731,2.466-1.253,3.77-1.554c0.293-0.067,0.518-0.303,0.57-0.599L31.006,2.5h3.987     l0.491,2.79c0.052,0.297,0.276,0.533,0.57,0.601c1.313,0.302,2.584,0.825,3.778,1.554c0.255,0.155,0.575,0.144,0.818-0.024     l2.314-1.608l2.824,2.818l-1.614,2.311c-0.17,0.244-0.18,0.566-0.025,0.82c0.731,1.198,1.26,2.471,1.572,3.783     c0.068,0.291,0.304,0.513,0.597,0.565l2.775,0.498v0.56h-7.45c-0.688-4.168-4.359-7.34-8.647-7.34     c-4.284,0-7.952,3.172-8.639,7.34h-7.45V16.607z M32.996,11.328c3.478,0,6.463,2.518,7.124,5.863H25.881     C26.54,13.847,29.522,11.328,32.996,11.328z M5.739,18.691h54.523c1.196,0,2.169,0.974,2.169,2.17V49.51H3.569V20.861     C3.569,19.665,4.543,18.691,5.739,18.691z M40.642,63.5H25.358v-5.485h15.283V63.5z M5.739,56.515c-1.196,0-2.17-0.974-2.17-2.17     V51.01h58.861v3.335c0,1.196-0.973,2.17-2.169,2.17C42.739,56.515,26.866,56.515,5.739,56.515z"></path></g><g><path d="M32.998,43.142c11.325,0,17.63-7.975,18.202-8.379c0.141-0.141,0.221-0.331,0.221-0.53s-0.079-0.391-0.22-0.531     c-0.76-0.536-6.554-8.379-18.198-8.379c-11.325,0-17.63,7.974-18.202,8.378c-0.141,0.141-0.221,0.331-0.221,0.53     s0.079,0.391,0.22,0.531C15.563,35.3,21.353,43.142,32.998,43.142z M33,26.867c4.061,0,7.364,3.304,7.364,7.364     S37.061,41.596,33,41.596c-4.061,0-7.364-3.304-7.364-7.364S28.939,26.867,33,26.867z M49.609,34.23     c-0.574,0.456-3.958,4.75-10.713,6.602c1.817-1.625,2.968-3.978,2.968-6.601c0-2.623-1.152-4.977-2.969-6.602     C45.637,29.475,49.074,33.805,49.609,34.23z M27.103,27.632c-1.816,1.625-2.967,3.977-2.967,6.599     c0,2.624,1.152,4.978,2.97,6.602c-6.741-1.846-10.179-6.175-10.714-6.601C16.987,33.759,20.312,29.494,27.103,27.632z"></path></g><g><path d="M28.82,33.816c-0.014,0.137-0.024,0.276-0.024,0.418c0,2.315,1.884,4.199,4.2,4.199c1.282,0,2.366-0.46,3.137-1.331     c0.676-0.763,1.047-1.782,1.047-2.869c0-2.087-1.437-4.199-4.183-4.199c-0.436,0-0.849,0.088-1.249,0.215     c-0.396-0.315-0.89-0.511-1.435-0.511c-1.278,0-2.318,1.04-2.318,2.319C27.994,32.764,28.319,33.39,28.82,33.816z M35.68,34.232     c0,1.344-0.829,2.7-2.683,2.7c-1.441,0-2.611-1.136-2.686-2.558c0.001,0,0.002,0,0.002,0c1.279,0,2.319-1.04,2.319-2.318     c0-0.164-0.018-0.324-0.051-0.479c0.136-0.021,0.272-0.044,0.415-0.044C34.851,31.533,35.68,32.889,35.68,34.232z M30.313,31.237     c0.452,0,0.819,0.367,0.819,0.819c0,0.451-0.367,0.818-0.819,0.818c-0.451,0-0.818-0.367-0.818-0.818     C29.494,31.604,29.861,31.237,30.313,31.237z"></path></g></g></g></svg>