<svg height='100px' width='100px'  fill="#293240" xmlns="http://www.w3.org/2000/svg" xmlns:xlink="http://www.w3.org/1999/xlink" version="1.1" x="0px" y="0px" viewBox="0 0 66 66" enable-background="new 0 0 66 66" xml:space="preserve"><g><g><path d="M17.285,19.182h-7.268c-0.414,0-0.75,0.336-0.75,0.75v7.267c0,0.414,0.336,0.75,0.75,0.75h7.268    c0.414,0,0.75-0.336,0.75-0.75v-7.267C18.035,19.518,17.699,19.182,17.285,19.182z M16.535,26.449h-5.768v-5.767h5.768V26.449z"></path></g><g><path d="M29.176,19.182h-7.268c-0.414,0-0.75,0.336-0.75,0.75v7.267c0,0.414,0.336,0.75,0.75,0.75h7.268    c0.414,0,0.75-0.336,0.75-0.75v-7.267C29.926,19.518,29.59,19.182,29.176,19.182z M28.426,26.449h-5.768v-5.767h5.768V26.449z"></path></g><g><path d="M33.8,27.949h7.268c0.414,0,0.75-0.336,0.75-0.75v-7.267c0-0.414-0.336-0.75-0.75-0.75H33.8    c-0.414,0-0.75,0.336-0.75,0.75v7.267C33.05,27.613,33.386,27.949,33.8,27.949z M34.55,20.682h5.768v5.767H34.55V20.682z"></path></g><g><path d="M17.285,31.932h-7.268c-0.414,0-0.75,0.336-0.75,0.75v7.268c0,0.414,0.336,0.75,0.75,0.75h7.268    c0.414,0,0.75-0.336,0.75-0.75v-7.268C18.035,32.268,17.699,31.932,17.285,31.932z M16.535,39.2h-5.768v-5.768h5.768V39.2z"></path></g><g><path d="M29.176,31.932h-7.268c-0.414,0-0.75,0.336-0.75,0.75v7.268c0,0.414,0.336,0.75,0.75,0.75h7.268    c0.414,0,0.75-0.336,0.75-0.75v-7.268C29.926,32.268,29.59,31.932,29.176,31.932z M28.426,39.2h-5.768v-5.768h5.768V39.2z"></path></g><g><path d="M47.944,33.031c0-9.053,0-19.8,0-27.845c0-0.414-0.336-0.75-0.75-0.75h-4.806V1.75c0-0.414-0.336-0.75-0.75-0.75h-3.581    c-0.414,0-0.75,0.336-0.75,0.75v2.686h-9.224V1.75c0-0.414-0.336-0.75-0.75-0.75h-3.581c-0.414,0-0.75,0.336-0.75,0.75v2.686    h-9.224V1.75c0-0.414-0.336-0.75-0.75-0.75H9.448c-0.414,0-0.75,0.336-0.75,0.75v2.686H3.894c-0.414,0-0.75,0.336-0.75,0.75v6.552    c-0.215,0.371-0.061-2.148-0.11,36.748c0,0.414,0.336,0.75,0.75,0.75h0.11h27.1C31.129,57.95,38.244,65,46.983,65    c8.817,0,15.991-7.184,15.991-16.015v-0.19C62.876,40.4,56.219,33.532,47.944,33.031z M38.807,2.5h2.081c0,0.145,0,5.575,0,5.38    h-2.081V2.5z M24.502,2.5h2.081v5.38h-2.081C24.502,7.715,24.502,2.316,24.502,2.5z M10.198,2.5h2.081v5.38h-2.081V2.5z     M4.644,5.936h4.054V8.63c0,0.414,0.336,0.75,0.75,0.75h3.581c0.414,0,0.75-0.336,0.75-0.75V5.936h9.224V8.63    c0,0.414,0.336,0.75,0.75,0.75h3.581c0.414,0,0.75-0.336,0.75-0.75V5.936h9.224V8.63c0,0.414,0.336,0.75,0.75,0.75h3.581    c0.414,0,0.75-0.336,0.75-0.75V5.936h4.056v5.42h-41.8V5.936z M30.923,47.736H4.644v-34.88h41.689v20.139    c-1.301,0.042-3.028,0.307-4.62,0.854v-1.163c0-0.414-0.336-0.75-0.75-0.75h-7.269c-0.414,0-0.75,0.336-0.75,0.75v7.26    c0,0.258,0.138,0.474,0.337,0.609C31.927,42.729,31.119,45.178,30.923,47.736z M40.213,33.436v1    c-0.052,0.024-0.099,0.055-0.15,0.08c-2.097,0.987-4.003,2.439-5.546,4.318c-0.023,0.028-0.051,0.052-0.073,0.081v-5.478H40.213z     M61.474,48.985c0,8.003-6.501,14.515-14.491,14.515c-7.996,0-14.502-6.511-14.502-14.515c0-7.971,6.463-14.456,14.423-14.499    c7.718-0.12,14.477,6.262,14.57,14.318V48.985z"></path></g><g><path d="M46.976,36.604c-8.328,0-14.305,8.091-11.839,16.056c1.616,5.219,6.375,8.725,11.842,8.725    c1.236,0,2.467-0.187,3.657-0.556c6.535-2.024,10.208-8.979,8.188-15.505C57.208,40.108,52.446,36.604,46.976,36.604z     M50.193,59.396c-1.047,0.324-2.128,0.488-3.214,0.488c-4.806,0-8.988-3.082-10.408-7.668c-2.165-6.99,3.076-14.112,10.405-14.112    c4.809,0,8.994,3.08,10.414,7.664C59.167,51.504,55.938,57.617,50.193,59.396z"></path></g><g><path d="M47.734,45.207v-5.38c0-0.414-0.336-0.75-0.75-0.75c-0.414,0-0.75,0.336-0.75,0.75v5.38    c-1.772,0.349-3.113,1.912-3.113,3.785c0,2.13,1.731,3.864,3.859,3.864c1.87,0,3.432-1.339,3.784-3.108h5.38    c0.414,0,0.75-0.336,0.75-0.75c0-0.414-0.336-0.75-0.75-0.75h-5.379C50.465,46.717,49.262,45.511,47.734,45.207z M46.98,51.354    c-1.301,0-2.359-1.061-2.359-2.364c0-1.301,1.059-2.36,2.359-2.36c1.302,0,2.36,1.059,2.36,2.36    C49.34,50.294,48.282,51.354,46.98,51.354z"></path></g></g></svg>