<svg height='100px' width='100px'  fill="#293240" xmlns="http://www.w3.org/2000/svg" xmlns:xlink="http://www.w3.org/1999/xlink" version="1.1" x="0px" y="0px" viewBox="0 0 66 66" enable-background="new 0 0 66 66" xml:space="preserve"><g><g><g><path d="M32.227,47.491H9.995c-0.414,0-0.75,0.336-0.75,0.75c0,0.414,0.336,0.75,0.75,0.75h22.232c0.414,0,0.75-0.336,0.75-0.75     C32.977,47.827,32.641,47.491,32.227,47.491z"></path></g><g><path d="M27.227,53.565H9.995c-0.414,0-0.75,0.336-0.75,0.75c0,0.414,0.336,0.75,0.75,0.75h17.232c0.414,0,0.75-0.336,0.75-0.75     C27.977,53.901,27.641,53.565,27.227,53.565z"></path></g><g><path d="M42.161,37.431c0-1.761-1.25-3.234-2.909-3.582v-3.634c0-0.414-0.336-0.75-0.75-0.75h-12.88v-3.367     c1.661-0.347,2.912-1.821,2.912-3.583c0-2.019-1.642-3.661-3.661-3.661c-2.019,0-3.661,1.642-3.661,3.661     c0,1.761,1.251,3.234,2.91,3.582v3.368h-12.88c-0.414,0-0.75,0.336-0.75,0.75v3.635c-1.658,0.349-2.907,1.821-2.907,3.581     c0,2.019,1.643,3.661,3.661,3.661c2.019,0,3.661-1.642,3.661-3.661c0-1.763-1.253-3.238-2.915-3.584v-2.882h12.13v2.884     c-1.659,0.348-2.91,1.821-2.91,3.582c0,2.019,1.643,3.661,3.661,3.661c2.018,0,3.661-1.642,3.661-3.661     c0-1.762-1.252-3.236-2.912-3.583v-2.883h12.13v2.883c-1.661,0.347-2.913,1.821-2.913,3.583c0,2.019,1.643,3.661,3.661,3.661     C40.519,41.091,42.161,39.45,42.161,37.431z M22.712,22.515c0-1.191,0.97-2.161,2.161-2.161s2.161,0.969,2.161,2.161     c0,1.191-0.968,2.16-2.158,2.161c-0.001,0-0.002-0.001-0.004-0.001c-0.001,0-0.002,0.001-0.003,0.001     C23.68,24.673,22.712,23.705,22.712,22.515z M13.406,37.431c0,1.191-0.969,2.161-2.161,2.161s-2.161-0.969-2.161-2.161     c0-1.191,0.97-2.161,2.161-2.161S13.406,36.239,13.406,37.431z M27.034,37.431c0,1.191-0.969,2.161-2.161,2.161     s-2.161-0.969-2.161-2.161c0-1.191,0.97-2.161,2.161-2.161S27.034,36.239,27.034,37.431z M38.501,39.591     c-1.191,0-2.161-0.969-2.161-2.161c0-1.191,0.97-2.161,2.161-2.161s2.161,0.97,2.161,2.161     C40.661,38.622,39.692,39.591,38.501,39.591z"></path></g><g><path d="M64.524,28.025c0.883-1.359,0.496-3.184-0.864-4.067l-0.281-0.183l0.651-1.002c1.287-1.98,0.722-4.639-1.258-5.926     l-1.046-0.679c-1.973-1.282-4.628-0.738-5.926,1.259l-7.058,10.865V12.105c0-1.643-1.332-2.98-2.97-2.98H34.527     c-0.173-0.833-0.906-1.448-1.766-1.448h-4.158v-1.61c0-2.599-2.114-4.712-4.712-4.712c-2.598,0-4.711,2.114-4.711,4.712v1.61     h-4.17c-0.859,0-1.592,0.615-1.766,1.448H3.982c-1.643,0-2.98,1.337-2.98,2.98v49.57c0,1.638,1.337,2.97,2.98,2.97h41.79     c1.638,0,2.97-1.332,2.97-2.97V45.566l7.108-10.943c0.023,0.002,0.046,0.01,0.068,0.01c0.245,0,0.486-0.12,0.629-0.341     l6.014-9.259l0.281,0.183c0.666,0.433,0.856,1.327,0.423,1.992l-3.125,4.812c-0.833,1.282-0.533,3.012,0.683,3.939     c0.326,0.25,0.799,0.19,1.051-0.142c0.251-0.329,0.188-0.8-0.142-1.051c-0.595-0.454-0.742-1.301-0.334-1.929L64.524,28.025z      M54.542,33.883l-7.74,11.916c-0.104-0.067-2.375-1.546-2.231-1.452c-0.994-0.645-2.929-1.9-2.805-1.819     c8.901-13.704,6.177-9.51,7.74-11.916C49.615,30.683,54.72,33.998,54.542,33.883z M40.956,50.357     c-0.131,0.031-3.019,0.74-5.04,2.967l-0.18-0.117l5.834-8.996l3.399,2.189C44.788,47.429,44.029,49.998,40.956,50.357z      M34.069,53.019c-0.225,0.348-0.127,0.812,0.221,1.037l1.367,0.888c0.331,0.214,0.769,0.137,1.006-0.176     c1.67-2.203,4.578-2.937,4.553-2.937c0.856-0.099,1.578-0.346,2.196-0.682v8.166H6.332v-44.86h6.203l-0.033,0.257     c-0.14,1.08,0.701,2.038,1.795,2.038h19.189c1.099,0,1.941-0.983,1.784-2.039l-0.034-0.256h8.176V37.24L40.1,42.339     c-0.226,0.348-0.127,0.812,0.22,1.038l0.002,0.001L34.069,53.019z M47.242,12.105v19.238c-0.069,0.107-2.484,3.824-2.33,3.588     V13.705c0-0.414-0.336-0.75-0.75-0.75H35.04l-0.304-2.33h11.037C46.583,10.625,47.242,11.289,47.242,12.105z M15.009,9.177h4.92     c0.414,0,0.75-0.336,0.75-0.75v-2.36c0-1.772,1.441-3.212,3.211-3.212c1.771,0,3.212,1.441,3.212,3.212v2.36     c0,0.414,0.336,0.75,0.75,0.75h4.908c0.158,0,0.287,0.114,0.308,0.271l0.715,5.471c0.026,0.177-0.124,0.332-0.298,0.332H14.296     c-0.189,0-0.332-0.161-0.308-0.345L14.7,9.45C14.721,9.297,14.857,9.177,15.009,9.177z M47.242,61.675     c0,0.811-0.659,1.47-1.47,1.47H3.982c-0.816,0-1.48-0.66-1.48-1.47v-49.57c0-0.816,0.664-1.48,1.48-1.48h9.052l-0.304,2.33H5.582     c-0.414,0-0.75,0.336-0.75,0.75v46.36c0,0.414,0.336,0.75,0.75,0.75h38.58c0.414,0,0.75-0.336,0.75-0.75V49.956     c0.736-0.834,1.178-1.814,1.408-2.682l0.294,0.191c0.085,0.055,0.181,0.085,0.279,0.102c0.021,0.004,0.041,0.007,0.062,0.009     c0.023,0.002,0.044,0.01,0.067,0.01c0.069,0,0.136-0.008,0.22-0.034V61.675z M55.699,32.845c-0.101-0.065-6.097-3.96-5.715-3.712     l7.073-10.889c0.841-1.295,2.565-1.653,3.851-0.818l1.046,0.679c1.287,0.837,1.654,2.564,0.818,3.851L55.699,32.845z"></path></g></g></g></svg>