<svg height='100px' width='100px'  fill="#293240" xmlns="http://www.w3.org/2000/svg" xmlns:xlink="http://www.w3.org/1999/xlink" version="1.1" x="0px" y="0px" viewBox="0 0 66 66" enable-background="new 0 0 66 66" xml:space="preserve"><g><g><g><path d="M33.005,16.053c-2.751,0-4.99,2.189-4.99,4.88c0,2.696,2.239,4.89,4.99,4.89c2.746,0,4.98-2.193,4.98-4.89     C37.985,18.242,35.751,16.053,33.005,16.053z M33.005,24.323c-1.924,0-3.49-1.521-3.49-3.39c0-1.864,1.566-3.38,3.49-3.38     c1.919,0,3.48,1.517,3.48,3.38C36.485,22.802,34.924,24.323,33.005,24.323z"></path></g><g><path d="M42.59,18.128c-0.196-0.683-0.469-1.348-0.818-1.986l1.047-1.5c0.208-0.298,0.172-0.704-0.086-0.96l-2.49-2.48     c-0.257-0.257-0.66-0.29-0.958-0.084l-1.49,1.038c-0.631-0.343-1.297-0.614-1.988-0.81L35.483,9.54     c-0.064-0.357-0.375-0.617-0.738-0.617h-3.5c-0.364,0-0.676,0.262-0.739,0.621l-0.316,1.803c-0.691,0.195-1.354,0.466-1.982,0.81     l-1.519-1.042c-0.299-0.205-0.701-0.166-0.955,0.089l-2.47,2.48c-0.256,0.257-0.292,0.661-0.083,0.958l1.046,1.5     c-0.346,0.634-0.622,1.299-0.823,1.986l-1.79,0.317c-0.358,0.063-0.619,0.374-0.619,0.738v3.51c0,0.364,0.261,0.675,0.62,0.739     l1.794,0.316c0.196,0.684,0.469,1.349,0.818,1.987l-1.047,1.5c-0.208,0.297-0.173,0.701,0.083,0.958l2.47,2.48     c0.255,0.256,0.659,0.294,0.958,0.088l1.518-1.049c0.639,0.352,1.302,0.623,1.981,0.813l0.316,1.809     c0.063,0.359,0.375,0.621,0.739,0.621h3.5c0.363,0,0.674-0.26,0.738-0.618l0.325-1.812c0.679-0.19,1.344-0.461,1.987-0.812     l1.489,1.045c0.298,0.208,0.702,0.174,0.96-0.082l2.49-2.48c0.258-0.257,0.294-0.662,0.086-0.96l-1.047-1.5     c0.349-0.638,0.622-1.303,0.818-1.987l1.794-0.316c0.359-0.063,0.62-0.375,0.62-0.739v-3.51     C45.005,18.193,43.651,18.432,42.59,18.128z M43.505,22.064l-1.65,0.291c-0.297,0.052-0.534,0.277-0.601,0.571     c-0.196,0.853-0.536,1.68-1.009,2.457c-0.155,0.254-0.145,0.576,0.025,0.82l0.959,1.374l-1.598,1.592l-1.366-0.959     c-0.246-0.172-0.567-0.182-0.822-0.026c-0.784,0.478-1.608,0.814-2.449,0.998c-0.296,0.065-0.524,0.302-0.578,0.601l-0.299,1.672     h-2.242l-0.292-1.669c-0.052-0.301-0.282-0.54-0.58-0.604c-0.84-0.182-1.659-0.517-2.435-0.996     c-0.253-0.156-0.575-0.147-0.82,0.021l-1.395,0.964l-1.585-1.592l0.96-1.376c0.17-0.244,0.181-0.565,0.025-0.82     c-0.474-0.777-0.813-1.604-1.009-2.457c-0.067-0.294-0.304-0.519-0.601-0.571l-1.65-0.291v-2.251l1.641-0.291     c0.294-0.052,0.529-0.273,0.599-0.563c0.207-0.864,0.55-1.692,1.021-2.464c0.155-0.254,0.145-0.576-0.025-0.82l-0.96-1.376     l1.586-1.593l1.395,0.957c0.246,0.168,0.566,0.176,0.818,0.02c0.753-0.465,1.575-0.8,2.441-0.997     c0.295-0.067,0.521-0.304,0.573-0.602l0.291-1.66h2.243l0.299,1.663c0.053,0.296,0.278,0.531,0.571,0.598     c0.87,0.199,1.696,0.535,2.456,0.999c0.253,0.154,0.576,0.145,0.819-0.025l1.366-0.952l1.6,1.593l-0.959,1.374     c-0.17,0.244-0.181,0.565-0.025,0.82c0.474,0.777,0.814,1.604,1.009,2.456c0.067,0.294,0.304,0.519,0.601,0.571l1.65,0.291     V22.064z"></path></g><g><path d="M46.81,15.012C46.854,7.545,40.614,1.19,32.897,1.19c-7.803,0-13.975,6.502-13.907,13.753     C10.055,12.202,1,18.877,1,28.219c0,5.941,4.127,10.871,6.706,11.878v2.99c0,1.277,1.039,2.316,2.316,2.316h0.822     c0.156,1.594,1.489,2.849,3.123,2.849h3.954v2.83h-3.954c-1.635,0-2.967,1.255-3.123,2.849h-0.822     c-1.277,0-2.316,1.039-2.316,2.316v3.397c0,1.277,1.039,2.316,2.316,2.316h0.822c0.156,1.595,1.489,2.85,3.123,2.85h38.064     c1.635,0,2.967-1.255,3.123-2.85h0.822c1.277,0,2.317-1.039,2.317-2.316v-3.397c0-1.277-1.04-2.316-2.317-2.316h-0.822     c-0.156-1.594-1.489-2.849-3.123-2.849h-3.622v-2.83h3.622c1.635,0,2.967-1.255,3.123-2.849h0.822     c1.277,0,2.317-1.039,2.317-2.316v-3.005c0.046-0.017,0.094-0.024,0.138-0.051C62.544,37.47,65,33.055,65,28.219     C65,18.75,55.729,12.109,46.81,15.012z M9.207,43.086c0.191-2.203-0.532-4.214,0.816-4.214h0.791v5.03h-0.791     C9.573,43.902,9.207,43.536,9.207,43.086z M9.207,59.644v-3.397c0-0.45,0.366-0.816,0.816-0.816h0.791v5.03h-0.791     C9.573,60.46,9.207,60.094,9.207,59.644z M56.794,56.246v3.397c0,0.45-0.367,0.816-0.817,0.816h-0.791v-5.03h0.791     C56.428,55.43,56.794,55.796,56.794,56.246z M53.687,54.235v0.445v6.53v0.445c0,0.913-0.742,1.655-1.654,1.655H13.968     c-0.912,0-1.654-0.742-1.654-1.655c0-0.219,0-7.436,0-6.975v-0.445c0-0.912,0.742-1.654,1.654-1.654h4.704h28.988h4.372     C52.944,52.581,53.687,53.323,53.687,54.235z M46.911,51.081H19.422v-2.83h27.488V51.081z M53.687,45.097     c0,0.912-0.742,1.654-1.654,1.654h-4.372H18.672h-4.704c-0.912,0-1.654-0.742-1.654-1.654v-0.445v-6.53v-0.445     c0-0.913,0.742-1.655,1.654-1.655h38.064c0.912,0,1.654,0.742,1.654,1.655v0.445v6.53V45.097z M56.794,43.086     c0,0.45-0.367,0.816-0.817,0.816h-0.791v-5.03h0.791c0.45,0,0.817,0.366,0.817,0.816V43.086z M57.967,38.522     c-0.403-0.684-1.14-1.15-1.99-1.15h-0.822c-0.156-1.595-1.489-2.85-3.123-2.85H13.968c-1.635,0-2.967,1.255-3.123,2.85h-0.822     c-0.851,0-1.588,0.467-1.991,1.152C4.568,36.214,2.5,32.401,2.5,28.219c0-8.72,8.804-14.785,17.023-11.497     c0.522,0.208,1.082-0.211,1.024-0.774C19.847,9.181,25.533,2.69,32.897,2.69c7.302,0,13.037,6.359,12.36,13.35     c-0.054,0.561,0.51,0.984,1.038,0.764c8.157-3.43,17.206,2.563,17.206,11.415C63.5,32.397,61.431,36.21,57.967,38.522z"></path></g><g><path d="M48.743,38.298c-1.703,0-3.089,1.386-3.089,3.089c0,1.703,1.386,3.089,3.089,3.089c1.704,0,3.089-1.386,3.089-3.089     C51.832,39.683,50.446,38.298,48.743,38.298z M48.743,42.976c-0.876,0-1.589-0.713-1.589-1.589c0-0.876,0.713-1.589,1.589-1.589     c0.876,0,1.589,0.713,1.589,1.589C50.332,42.263,49.619,42.976,48.743,42.976z"></path></g><g><path d="M25.355,38.298c-1.704,0-3.089,1.386-3.089,3.089c0,1.703,1.386,3.089,3.089,3.089c1.703,0,3.089-1.386,3.089-3.089     C28.444,39.683,27.059,38.298,25.355,38.298z M25.355,42.976c-0.876,0-1.589-0.713-1.589-1.589c0-0.876,0.713-1.589,1.589-1.589     c0.876,0,1.589,0.713,1.589,1.589C26.944,42.263,26.231,42.976,25.355,42.976z"></path></g><g><path d="M17.257,38.298c-1.703,0-3.089,1.386-3.089,3.089c0,1.703,1.386,3.089,3.089,3.089c1.704,0,3.089-1.386,3.089-3.089     C20.347,39.683,18.961,38.298,17.257,38.298z M17.257,42.976c-0.876,0-1.589-0.713-1.589-1.589c0-0.876,0.713-1.589,1.589-1.589     c0.876,0,1.589,0.713,1.589,1.589C18.847,42.263,18.134,42.976,17.257,42.976z"></path></g><g><path d="M43.394,40.938h-13.14c-0.414,0-0.75,0.336-0.75,0.75c0,0.414,0.336,0.75,0.75,0.75h13.14c0.414,0,0.75-0.336,0.75-0.75     C44.144,41.274,43.808,40.938,43.394,40.938z"></path></g><g><path d="M45.654,57.945c0,1.704,1.386,3.089,3.089,3.089c1.704,0,3.089-1.386,3.089-3.089c0-1.703-1.386-3.089-3.089-3.089     C47.04,54.856,45.654,56.242,45.654,57.945z M48.743,56.356c0.876,0,1.589,0.713,1.589,1.589c0,0.876-0.713,1.589-1.589,1.589     c-0.876,0-1.589-0.713-1.589-1.589C47.154,57.069,47.867,56.356,48.743,56.356z"></path></g><g><path d="M25.355,54.856c-1.704,0-3.089,1.386-3.089,3.089c0,1.704,1.386,3.089,3.089,3.089c1.703,0,3.089-1.386,3.089-3.089     C28.444,56.242,27.059,54.856,25.355,54.856z M25.355,59.534c-0.876,0-1.589-0.713-1.589-1.589c0-0.876,0.713-1.589,1.589-1.589     c0.876,0,1.589,0.713,1.589,1.589C26.944,58.821,26.231,59.534,25.355,59.534z"></path></g><g><path d="M17.257,54.856c-1.703,0-3.089,1.386-3.089,3.089c0,1.704,1.386,3.089,3.089,3.089c1.704,0,3.089-1.386,3.089-3.089     C20.347,56.242,18.961,54.856,17.257,54.856z M17.257,59.534c-0.876,0-1.589-0.713-1.589-1.589c0-0.876,0.713-1.589,1.589-1.589     c0.876,0,1.589,0.713,1.589,1.589C18.847,58.821,18.134,59.534,17.257,59.534z"></path></g><g><path d="M43.394,57.496h-13.14c-0.414,0-0.75,0.336-0.75,0.75c0,0.414,0.336,0.75,0.75,0.75h13.14c0.414,0,0.75-0.336,0.75-0.75     C44.144,57.832,43.808,57.496,43.394,57.496z"></path></g></g></g></svg>