<svg height='100px' width='100px'  fill="#293240" xmlns="http://www.w3.org/2000/svg" xmlns:xlink="http://www.w3.org/1999/xlink" version="1.1" x="0px" y="0px" viewBox="0 0 66 66" enable-background="new 0 0 66 66" xml:space="preserve"><g><g><path d="M63.514,32.671c-1.965,0.081-4.022-0.176-6.045-0.826c0.132-1.047,0.218-2.101,0.227-3.148    c0-0.002-0.001-0.004-0.001-0.007c0-0.002,0.001-0.004,0.001-0.007c-0.05-5.043-1.464-9.976-4.09-14.265    C48.465,6.016,39.53,1,29.705,1c-15.634,0-27.822,12.587-28,27.682c0,0.003,0.002,0.006,0.002,0.009    c0,0.003-0.002,0.006-0.002,0.009C1.884,43.861,14.138,56.37,29.695,56.37c2.059,0,4.095-0.234,6.066-0.675    c2.791,4.079,6.994,7.374,12.125,9.259c0.083,0.03,0.17,0.046,0.259,0.046h0.01c0.019,0,0.037-0.009,0.056-0.01    c0.058-0.005,0.116-0.012,0.171-0.031c0.011-0.004,0.022-0.002,0.033-0.006c9.182-3.394,15.407-11.282,15.861-20.165    c0.01-0.323,0.019-0.646,0.019-0.968v-10.4C64.295,32.996,63.945,32.656,63.514,32.671z M62.795,43.82    c0,0.083-0.002,0.167-0.003,0.25H48.895V27.879c0.031,0.039,0.069,0.072,0.101,0.111c0.012,0.015,0.025,0.03,0.037,0.045    c0.026,0.031,0.051,0.062,0.077,0.093c3.321,3.968,8.552,6.055,13.685,6.058V43.82z M33.641,45.57h13.754v17.566    C39.853,59.989,34.444,53.633,33.641,45.57z M33.934,52.517c-1.353,1.562-2.777,2.353-4.239,2.353    c-3.377,0-6.63-4.403-8.601-11.55H31.99c0.112,3.364,0.344,5.613,1.865,9.016C33.883,52.397,33.906,52.456,33.934,52.517z     M14.923,28.033c0-1.955,1.591-3.546,3.546-3.546c1.955,0,3.546,1.591,3.546,3.546s-1.591,3.546-3.546,3.546    C16.514,31.579,14.923,29.988,14.923,28.033z M29.705,2.5c2.685,0,5.328,2.794,7.308,7.683c-1.33,0.821-2.237,2.236-2.37,3.877    H21.094C23.066,6.907,26.323,2.5,29.705,2.5z M39.647,18.013c-1.956,0-3.546-1.591-3.546-3.546c0-1.955,1.591-3.546,3.546-3.546    c1.955,0,3.546,1.591,3.546,3.546C43.193,16.422,41.602,18.013,39.647,18.013z M33.526,44.07c-0.042-0.154-0.027-5.736-0.03-9.889    c5.616,0.227,10.765-2.223,13.899-6.269V44.07H33.526z M41.638,30.828c0.018-0.48,0.029-0.942,0.035-1.387h2.094    C43.053,29.994,42.311,30.462,41.638,30.828z M34.728,15.56c0.489,2.2,2.416,3.851,4.741,3.935    c0.425,2.707,0.668,5.538,0.71,8.446H23.506c-0.044-2.389-1.749-4.379-4.011-4.848c0.246-2.666,0.654-5.192,1.218-7.533H34.728z     M23.29,29.44h16.889c-0.01,0.66-0.033,1.356-0.069,2.103c-2.334,0.923-5.161,1.285-7.297,1.09    c-0.453-0.037-0.818,0.316-0.818,0.747c0.003,2.901-0.062,6.186-0.037,8.44H20.714c-0.659-2.739-1.102-5.704-1.323-8.835    C21.266,32.637,22.761,31.246,23.29,29.44z M52.717,29.44h3.46c-0.024,0.622-0.071,1.245-0.141,1.866    C54.775,30.775,53.63,30.11,52.717,29.44z M50.982,27.94c-0.844-0.852-1.606-1.843-2.176-2.905    c-0.388-0.723-1.25-0.211-1.108-0.24c-0.344,0.258-0.631,1.361-2.303,3.145h-3.726c-0.042-2.965-0.28-5.857-0.711-8.622    c1.798-0.487,3.202-1.929,3.609-3.758h7.963c2.22,3.757,3.479,8.011,3.647,12.38H50.982z M51.576,14.06h-6.924    c-0.211-2.59-2.362-4.639-5.005-4.639c-0.435,0-0.851,0.073-1.254,0.177c-1.217-3-2.671-5.273-4.286-6.724    C41.185,4.049,47.458,8.027,51.576,14.06z M25.336,2.868c-2.382,2.122-4.412,5.984-5.795,11.192H7.824    C11.949,8.016,18.239,4.035,25.336,2.868z M6.871,15.56h12.302c-0.543,2.335-0.94,4.839-1.18,7.475    c-2.526,0.241-4.513,2.329-4.56,4.905H3.224C3.401,23.572,4.66,19.318,6.871,15.56z M13.648,29.44    c0.561,1.913,2.212,3.344,4.242,3.58c0.216,3.108,0.649,6.058,1.287,8.8H6.869c-2.211-3.759-3.468-8.013-3.645-12.38H13.648z     M7.834,43.32h11.707c1.382,5.202,3.41,9.061,5.788,11.181C18.24,53.336,11.956,49.358,7.834,43.32z M34.084,54.499    c0.195-0.174,0.386-0.364,0.576-0.561c0.078,0.14,0.154,0.28,0.235,0.419C34.627,54.41,34.355,54.453,34.084,54.499z     M48.895,63.138V45.57h13.808C61.991,53.14,56.688,59.879,48.895,63.138z"></path></g></g></svg>