<svg height='100px' width='100px'  fill="#293240" xmlns="http://www.w3.org/2000/svg" xmlns:xlink="http://www.w3.org/1999/xlink" version="1.1" x="0px" y="0px" viewBox="0 0 66 66" enable-background="new 0 0 66 66" xml:space="preserve"><g><g><g><path d="M48.836,11.523c0.285-0.286,0.299-0.761,0-1.06c-0.28-0.28-0.78-0.29-1.07,0c-0.272,0.293-0.29,0.737,0.01,1.06     C48.074,11.82,48.545,11.812,48.836,11.523z"></path></g><g><path d="M17.166,12.433c0.294-0.295,0.292-0.767,0-1.06c-0.28-0.28-0.78-0.28-1.061,0c-0.292,0.293-0.293,0.766,0,1.06     C16.396,12.724,16.869,12.729,17.166,12.433z"></path></g><g><path d="M64.25,54.644h-3.747v-4.46c0-0.414-0.336-0.75-0.75-0.75H33.742V46.48c9.778-0.385,17.62-8.438,17.62-18.309     c0-5.27-2.246-10.014-5.816-13.363l1.724-1.724c0.293-0.293,0.293-0.767,0-1.061c-0.293-0.293-0.768-0.293-1.061,0l-1.797,1.797     c-2.95-2.348-6.635-3.794-10.65-3.957v-2.44h5.328c0.414,0,0.75-0.336,0.75-0.75V2.217c0-0.414-0.336-0.75-0.75-0.75H26.934     c-0.414,0-0.75,0.336-0.75,0.75v4.456c0,0.414,0.336,0.75,0.75,0.75h5.329v2.441c-4.518,0.185-8.611,2.003-11.715,4.889     l-1.818-1.818c-0.293-0.293-0.768-0.293-1.06,0c-0.293,0.293-0.293,0.768,0,1.061l1.823,1.823     c-2.984,3.264-4.822,7.592-4.822,12.353c0,9.854,7.816,17.896,17.571,18.306v2.956H6.231c-0.414,0-0.75,0.336-0.75,0.75v4.46     H1.75c-0.414,0-0.75,0.336-0.75,0.75v8.389c0,0.414,0.336,0.75,0.75,0.75h8.995c0.414,0,0.75-0.336,0.75-0.75v-8.389     c0-0.414-0.336-0.75-0.75-0.75H6.981v-3.71h25.261v3.71h-3.747c-0.414,0-0.75,0.336-0.75,0.75v8.389     c0,0.414,0.336,0.75,0.75,0.75h8.994c0.414,0,0.75-0.336,0.75-0.75v-8.389c0-0.414-0.336-0.75-0.75-0.75h-3.747v-3.71h25.261     v3.71h-3.747c-0.414,0-0.75,0.336-0.75,0.75v8.389c0,0.414,0.336,0.75,0.75,0.75h8.994c0.414,0,0.75-0.336,0.75-0.75v-8.389     C65,54.98,64.664,54.644,64.25,54.644z M27.684,2.967h10.657v2.956H27.684V2.967z M16.171,28.171     c0-9.287,7.554-16.843,16.841-16.845l0.001,0c0.001,0,0.001,0,0.002,0c0.001,0,0.001,0,0.002,0     c9.289,0,16.846,7.557,16.846,16.846c0,9.289-7.557,16.846-16.846,16.846C23.728,45.017,16.171,37.46,16.171,28.171z      M9.995,63.033H2.5v-6.889h7.495V63.033z M36.739,63.033h-7.494v-6.889h7.494V63.033z M63.5,63.033h-7.494v-6.889H63.5V63.033z"></path></g><g><path d="M33.039,42.604c7.948-0.012,14.411-6.482,14.411-14.432c0-7.95-6.461-14.418-14.408-14.432     c-0.011,0-0.02-0.006-0.031-0.006c-0.012,0-0.022,0.006-0.034,0.007c-7.921,0.021-14.36,6.455-14.392,14.373     c-0.002,0.02-0.012,0.038-0.012,0.058c0,0.021,0.01,0.038,0.012,0.058c0.032,7.92,6.472,14.354,14.395,14.374     c0.011,0,0.02,0.006,0.031,0.006C33.021,42.609,33.029,42.604,33.039,42.604z M20.121,28.921h4.154c0.414,0,0.75-0.336,0.75-0.75     c0-0.414-0.336-0.75-0.75-0.75h-4.154c0.377-6.53,5.61-11.765,12.141-12.145v4.158c0,0.414,0.336,0.75,0.75,0.75     c0.414,0,0.75-0.336,0.75-0.75v-4.159c6.535,0.375,11.773,5.612,12.15,12.145h-4.163c-0.414,0-0.75,0.336-0.75,0.75     c0,0.414,0.336,0.75,0.75,0.75h4.163c-0.377,6.534-5.616,11.771-12.15,12.146v-4.159c0-0.414-0.336-0.75-0.75-0.75     c-0.414,0-0.75,0.336-0.75,0.75v4.159C25.731,40.687,20.498,35.452,20.121,28.921z"></path></g><g><path d="M33.017,31.675c1.932,0,3.504-1.572,3.504-3.504c0-0.639-0.185-1.231-0.485-1.748l3.142-3.15     c0.292-0.294,0.292-0.769-0.002-1.061c-0.294-0.293-0.769-0.291-1.061,0.001l-3.088,3.097c-0.57-0.402-1.261-0.642-2.01-0.642     c-1.932,0-3.504,1.572-3.504,3.504C29.513,30.103,31.085,31.675,33.017,31.675z M33.017,26.167c1.104,0,2.004,0.899,2.004,2.004     s-0.899,2.004-2.004,2.004c-1.105,0-2.004-0.899-2.004-2.004S31.912,26.167,33.017,26.167z"></path></g></g></g></svg>