<svg height='100px' width='100px'  fill="#293240" xmlns="http://www.w3.org/2000/svg" xmlns:xlink="http://www.w3.org/1999/xlink" version="1.1" x="0px" y="0px" viewBox="0 0 66 66" enable-background="new 0 0 66 66" xml:space="preserve"><g><g><g><path d="M59.051,34.36c0.231-1.455,0.362-2.951,0.363-4.461c0-0.006,0.003-0.01,0.003-0.016c0-0.005-0.003-0.009-0.003-0.014     C59.407,14.29,46.905,1,30.533,1C14.353,1,1.671,14.113,1.661,29.863c0,0.007-0.004,0.013-0.004,0.02     c0,0.007,0.004,0.013,0.004,0.021c0.012,16.655,14.168,30.135,31.096,28.767C36.048,62.536,40.94,65,46.404,65     c9.892,0,17.94-8.043,17.94-17.93C64.343,42.108,62.317,37.611,59.051,34.36z M53.574,30.633h4.319     c-0.023,0.85-0.073,1.695-0.173,2.525C56.445,32.117,55.018,31.264,53.574,30.633z M21.797,45.194h6.775     c-0.05,0.479-0.105,1.272-0.105,1.87c0,3.544,1.119,7.166,3.092,10.065C26.558,58.454,23.149,50.253,21.797,45.194z      M6.902,43.694c-2.317-3.973-3.59-8.463-3.716-13.061h15.27c0.049,4.589,0.54,9.065,1.432,13.061H6.902z M6.902,16.071h12.986     c-0.893,3.995-1.384,8.472-1.432,13.063H3.185C3.311,24.534,4.585,20.043,6.902,16.071z M30.533,2.5     c3.44,0,6.749,4.603,8.744,12.07h-17.48C23.793,7.103,27.099,2.5,30.533,2.5z M39.65,16.071c0.916,3.97,1.42,8.455,1.469,13.063     H19.956c0.05-4.608,0.554-9.093,1.47-13.063H39.65z M54.173,16.071c2.317,3.96,3.591,8.451,3.716,13.063H46.481     c-0.026,0-0.051-0.004-0.077-0.004s-0.051,0.004-0.077,0.004h-3.708c-0.048-4.59-0.54-9.066-1.432-13.063H54.173z M19.956,30.633     h19.263c-5.2,2.26-9.271,7.005-10.424,13.061h-7.37C20.51,39.724,20.006,35.24,19.956,30.633z M53.229,14.571H40.827     c-1.416-5.488-3.511-9.537-5.969-11.72C42.322,4.022,48.931,8.2,53.229,14.571z M26.213,2.85     c-2.456,2.184-4.55,6.232-5.966,11.721H7.845C12.144,8.2,18.752,4.021,26.213,2.85z M7.845,45.194h12.402     c1.416,5.489,3.509,9.537,5.966,11.721C18.751,55.743,12.144,51.565,7.845,45.194z M46.404,63.5     c-9.083,0-16.43-7.417-16.43-16.43c0-8.966,7.218-16.335,16.254-16.431c0.051-0.001,0.101-0.005,0.152-0.005h0.05     c0.284,0,0.563,0.025,0.845,0.04c8.995,0.473,15.57,7.969,15.57,16.396C62.843,56.129,55.468,63.5,46.404,63.5z"></path></g><g><path d="M46.405,43.553c-1.937,0-3.513,1.576-3.513,3.514s1.576,3.514,3.513,3.514c1.937,0,3.514-1.576,3.514-3.514     S48.343,43.553,46.405,43.553z M46.405,49.081c-1.11,0-2.013-0.903-2.013-2.014c0-1.11,0.903-2.014,2.013-2.014     c1.11,0,2.014,0.903,2.014,2.014C48.419,48.177,47.516,49.081,46.405,49.081z"></path></g><g><path d="M60.589,46.317h-2.314c-0.376-5.966-5.154-10.744-11.12-11.119v-2.314c0-0.414-0.336-0.75-0.75-0.75     c-0.414,0-0.75,0.336-0.75,0.75v2.314c-5.963,0.374-10.739,5.152-11.114,11.119h-2.319c-0.414,0-0.75,0.336-0.75,0.75     c0,0.414,0.336,0.75,0.75,0.75h2.319c0.373,5.965,5.15,10.741,11.115,11.115v2.319c0,0.414,0.336,0.75,0.75,0.75     c0.414,0,0.75-0.336,0.75-0.75v-2.319c5.968-0.375,10.746-5.151,11.12-11.114h2.314c0.414,0,0.75-0.336,0.75-0.75     C61.339,46.653,61.003,46.317,60.589,46.317z M47.155,57.431v-5.073c0-0.414-0.336-0.75-0.75-0.75c-0.414,0-0.75,0.336-0.75,0.75     v5.073c-5.138-0.368-9.247-4.477-9.615-9.615h5.074c0.414,0,0.75-0.336,0.75-0.75c0-0.414-0.336-0.75-0.75-0.75h-5.073     c0.37-5.141,4.478-9.251,9.614-9.619v5.078c0,0.414,0.336,0.75,0.75,0.75c0.414,0,0.75-0.336,0.75-0.75v-5.078     c5.139,0.37,9.249,4.48,9.62,9.619h-5.079c-0.414,0-0.75,0.336-0.75,0.75c0,0.414,0.336,0.75,0.75,0.75h5.079     C56.407,52.953,52.296,57.061,47.155,57.431z"></path></g></g></g></svg>