<svg height='100px' width='100px'  fill="#293240" xmlns="http://www.w3.org/2000/svg" xmlns:xlink="http://www.w3.org/1999/xlink" version="1.1" x="0px" y="0px" viewBox="0 0 66 66" enable-background="new 0 0 66 66" xml:space="preserve"><g><g><g><path d="M57.247,36.907c1.576-1.06,2.615-2.859,2.615-4.897c0-3.252-2.646-5.898-5.899-5.898c-3.252,0-5.898,2.646-5.898,5.898     c0,2.038,1.039,3.837,2.615,4.897c-4.487,1.401-7.753,5.595-7.753,10.538c0,0.414,0.336,0.75,0.75,0.75H64.25     c0.414,0,0.75-0.336,0.75-0.75C65,42.502,61.734,38.308,57.247,36.907z M49.565,32.01c0-2.425,1.973-4.398,4.398-4.398     c2.426,0,4.399,1.973,4.399,4.398s-1.973,4.398-4.399,4.398C51.538,36.408,49.565,34.435,49.565,32.01z M44.457,46.694     c0.384-4.91,4.501-8.787,9.507-8.787c5.006,0,9.123,3.877,9.507,8.787H44.457z"></path></g><g><path d="M23.073,47.444c0-4.943-3.266-9.137-7.753-10.538c1.576-1.06,2.615-2.859,2.615-4.897c0-3.252-2.645-5.898-5.897-5.898     c-3.252,0-5.898,2.646-5.898,5.898c0,2.038,1.039,3.837,2.615,4.897C4.266,38.307,1,42.502,1,47.444     c0,0.414,0.336,0.75,0.75,0.75h20.573C22.737,48.194,23.073,47.858,23.073,47.444z M7.639,32.01c0-2.425,1.973-4.398,4.398-4.398     c2.425,0,4.397,1.973,4.397,4.398s-1.973,4.398-4.397,4.398C9.611,36.408,7.639,34.435,7.639,32.01z M2.529,46.694     c0.384-4.91,4.501-8.787,9.508-8.787c5.006,0,9.123,3.877,9.507,8.787H2.529z"></path></g><g><path d="M20.917,22.455h3.412l-1.017,4.93c-0.136,0.657,0.595,1.145,1.152,0.774l8.507-5.705h18.794     c1.195,0,2.168-0.972,2.168-2.167V3.926c0-1.195-0.973-2.167-2.168-2.167H20.917c-1.195,0-2.167,0.972-2.167,2.167v16.362     C18.75,21.483,19.722,22.455,20.917,22.455z M20.25,3.926c0-0.374,0.293-0.667,0.667-0.667h30.849     c0.368,0,0.668,0.299,0.668,0.667v16.362c0,0.368-0.3,0.667-0.668,0.667H32.743c-0.148,0-0.294,0.044-0.418,0.127l-7.174,4.81     l0.833-4.036c0.096-0.461-0.257-0.901-0.734-0.901h-4.333c-0.368,0-0.667-0.299-0.667-0.667V3.926z"></path></g><g><path d="M26.667,15.4c1.808,0,3.278-1.475,3.278-3.288c0-1.808-1.471-3.278-3.278-3.278c-1.808,0-3.278,1.471-3.278,3.278     C23.389,13.925,24.859,15.4,26.667,15.4z M26.667,10.334c0.98,0,1.778,0.798,1.778,1.778c0,0.986-0.798,1.788-1.778,1.788     c-0.98,0-1.778-0.802-1.778-1.788C24.889,11.132,25.687,10.334,26.667,10.334z"></path></g><g><path d="M36.342,15.4c1.808,0,3.278-1.475,3.278-3.288c0-1.808-1.471-3.278-3.278-3.278c-1.808,0-3.278,1.471-3.278,3.278     C33.063,13.925,34.534,15.4,36.342,15.4z M36.342,10.334c0.98,0,1.778,0.798,1.778,1.778c0,0.986-0.798,1.788-1.778,1.788     c-0.98,0-1.778-0.802-1.778-1.788C34.563,11.132,35.361,10.334,36.342,10.334z"></path></g><g><path d="M46.017,15.4c1.808,0,3.278-1.475,3.278-3.288c0-1.808-1.471-3.278-3.278-3.278c-1.808,0-3.278,1.471-3.278,3.278     C42.738,13.925,44.209,15.4,46.017,15.4z M46.017,10.334c0.98,0,1.778,0.798,1.778,1.778c0,0.986-0.798,1.788-1.778,1.788     c-0.981,0-1.778-0.802-1.778-1.788C44.238,11.132,45.036,10.334,46.017,10.334z"></path></g><g><path d="M37.13,46.38c3.001-1.516,5.068-4.622,5.068-8.207c0-5.072-4.126-9.198-9.198-9.198c-5.071,0-9.197,4.126-9.197,9.198     c0,3.586,2.067,6.691,5.067,8.207c-7.726,1.866-13.49,8.82-13.49,17.112c0,0.414,0.336,0.75,0.75,0.75h33.741     c0.414,0,0.75-0.336,0.75-0.75C50.621,55.2,44.857,48.246,37.13,46.38z M25.303,38.172c0-4.245,3.453-7.698,7.697-7.698     c4.245,0,7.698,3.453,7.698,7.698S37.245,45.871,33,45.871C28.756,45.871,25.303,42.417,25.303,38.172z M16.897,62.741     C17.29,54.199,24.362,47.371,33,47.371c8.638,0,15.711,6.828,16.104,15.371H16.897z"></path></g></g></g></svg>